<svg width="40" height="40" viewBox="0 0 40 40" fill="none" xmlns="http://www.w3.org/2000/svg">
<path d="M9.75001 20L9.25001 17.5C8.91668 17.3611 8.60418 17.2153 8.31251 17.0625C8.02084 16.9097 7.72223 16.7222 7.41668 16.5L5.00001 17.25L3.33334 14.4167L5.25001 12.75C5.19445 12.3889 5.16668 12.0278 5.16668 11.6667C5.16668 11.3056 5.19445 10.9444 5.25001 10.5833L3.33334 8.91667L5.00001 6.08334L7.41668 6.83334C7.72223 6.61111 8.02084 6.42361 8.31251 6.27084C8.60418 6.11806 8.91668 5.97222 9.25001 5.83334L9.75001 3.33334H13.0833L13.5833 5.83334C13.9167 5.97222 14.2292 6.11806 14.5208 6.27084C14.8125 6.42361 15.1111 6.61111 15.4167 6.83334L17.8333 6.08334L19.5 8.91667L17.5833 10.5833C17.6389 10.9444 17.6667 11.3056 17.6667 11.6667C17.6667 12.0278 17.6389 12.3889 17.5833 12.75L19.5 14.4167L17.8333 17.25L15.4167 16.5C15.1111 16.7222 14.8125 16.9097 14.5208 17.0625C14.2292 17.2153 13.9167 17.3611 13.5833 17.5L13.0833 20H9.75001ZM11.4167 15C12.3333 15 13.1181 14.6736 13.7708 14.0208C14.4236 13.3681 14.75 12.5833 14.75 11.6667C14.75 10.75 14.4236 9.96528 13.7708 9.3125C13.1181 8.65972 12.3333 8.33334 11.4167 8.33334C10.5 8.33334 9.71529 8.65972 9.06251 9.3125C8.40973 9.96528 8.08334 10.75 8.08334 11.6667C8.08334 12.5833 8.40973 13.3681 9.06251 14.0208C9.71529 14.6736 10.5 15 11.4167 15ZM24.6667 38.3333L23.9167 34.8333C23.4445 34.6667 23.007 34.4653 22.6042 34.2292C22.2014 33.9931 21.8056 33.7222 21.4167 33.4167L18.0833 34.5L15.75 30.5L18.4167 28.1667C18.3611 27.6667 18.3333 27.1667 18.3333 26.6667C18.3333 26.1667 18.3611 25.6667 18.4167 25.1667L15.75 22.8333L18.0833 18.8333L21.4167 19.9167C21.8056 19.6111 22.2014 19.3403 22.6042 19.1042C23.007 18.8681 23.4445 18.6667 23.9167 18.5L24.6667 15H29.3333L30.0833 18.5C30.5556 18.6667 30.9931 18.8681 31.3958 19.1042C31.7986 19.3403 32.1945 19.6111 32.5833 19.9167L35.9167 18.8333L38.25 22.8333L35.5833 25.1667C35.6389 25.6667 35.6667 26.1667 35.6667 26.6667C35.6667 27.1667 35.6389 27.6667 35.5833 28.1667L38.25 30.5L35.9167 34.5L32.5833 33.4167C32.1945 33.7222 31.7986 33.9931 31.3958 34.2292C30.9931 34.4653 30.5556 34.6667 30.0833 34.8333L29.3333 38.3333H24.6667ZM27 31.6667C28.3889 31.6667 29.5695 31.1806 30.5417 30.2083C31.5139 29.2361 32 28.0556 32 26.6667C32 25.2778 31.5139 24.0972 30.5417 23.125C29.5695 22.1528 28.3889 21.6667 27 21.6667C25.6111 21.6667 24.4306 22.1528 23.4583 23.125C22.4861 24.0972 22 25.2778 22 26.6667C22 28.0556 22.4861 29.2361 23.4583 30.2083C24.4306 31.1806 25.6111 31.6667 27 31.6667Z" fill="white"/>
</svg>
